<svg class="animated" id="freepik_stories-pirate-boat" xmlns="http://www.w3.org/2000/svg" viewBox="0 0 500 500" version="1.1" xmlns:xlink="http://www.w3.org/1999/xlink" xmlns:svgjs="http://svgjs.com/svgjs"><style>svg#freepik_stories-pirate-boat:not(.animated) .animable {opacity: 0;}svg#freepik_stories-pirate-boat.animated #freepik--Shadow--inject-31 {animation: 6s Infinite  linear floating;animation-delay: 0s;}svg#freepik_stories-pirate-boat.animated #freepik--Birds--inject-31 {animation: 6s Infinite  linear shake;animation-delay: 0s;}svg#freepik_stories-pirate-boat.animated #freepik--Sun--inject-31 {animation: 6s Infinite  linear floating;animation-delay: 0s;}svg#freepik_stories-pirate-boat.animated #freepik--Water--inject-31 {animation: 6s Infinite  linear floating;animation-delay: 0s;}svg#freepik_stories-pirate-boat.animated #freepik--Lines--inject-31 {animation: 6s Infinite  linear shake;animation-delay: 0s;}svg#freepik_stories-pirate-boat.animated #freepik--Boat--inject-31 {animation: 6s Infinite  linear floating;animation-delay: 0s;}            @keyframes floating {                0% {                    opacity: 1;                    transform: translateY(0px);                }                50% {                    transform: translateY(-10px);                }                100% {                    opacity: 1;                    transform: translateY(0px);                }            }                    @keyframes shake {                10%, 90% {                    transform: translate3d(-1px, 0, 0);                  }                  20%, 80% {                    transform: translate3d(2px, 0, 0);                  }                  30%, 50%, 70% {                    transform: translate3d(-4px, 0, 0);                  }                  40%, 60% {                    transform: translate3d(4px, 0, 0);                  }            }        .animator-hidden { display: none; }</style><g id="freepik--Shadow--inject-31" class="animable" style="transform-origin: 250px 447.33px;"><path d="M458.88,447.33c0,3.39-93.52,6.13-208.88,6.13s-208.88-2.75-208.88-6.13,93.52-6.13,208.88-6.13,208.88,2.75,208.88,6.13Z" style="fill: rgb(245, 245, 245); transform-origin: 250px 447.33px;" id="el8b5wdfj9sme" class="animable"></path></g><g id="freepik--Birds--inject-31" class="animable" style="transform-origin: 417.11px 159.11px;"><g id="elhkqbabv0xyi" class="animable" style="transform-origin: 417.11px 159.11px;"><path d="M402.78,177.28c4.19-4.03,11.37-3.8,15.47,.28h-.7c1.98-1.97,4.8-3.05,7.57-2.86,2.76,.17,5.38,1.58,6.97,3.73-3.69-3.82-10.16-3.95-13.83-.15-.19,.19-.5,.2-.7,0-3.88-3.83-10.37-4.19-14.78-1h0Z" style="fill: rgb(38, 50, 56); transform-origin: 417.435px 176.403px;" id="el3zpdbu344bn" class="animable"></path><path d="M427.7,155.83c2.02-2.24,5.8-2.15,7.91-.04h-.7c2.01-2.13,5.92-1.89,7.44,.61-1.94-1.72-4.96-1.72-6.74,.1-.19,.19-.5,.2-.7,0-1.88-1.86-4.98-2.06-7.22-.68h0Z" style="fill: rgb(38, 50, 56); transform-origin: 435.02px 155.412px;" id="eljqxgrrdjck" class="animable"></path><path d="M391.87,141.2c5.13,2.32,9.54,6.13,12.76,10.74l-.88,.13c1.71-5.09,5.28-9.62,9.94-12.28-4.14,3.25-7.34,7.62-8.99,12.6-.11,.38-.67,.46-.88,.13-3.16-4.53-7.28-8.35-11.94-11.31h0Z" style="fill: rgb(38, 50, 56); transform-origin: 402.78px 146.259px;" id="eldmd5rp59rwk" class="animable"></path></g></g><g id="freepik--Sun--inject-31" class="animable" style="transform-origin: 338.47px 98.405px;"><g id="freepik--freepik--Sun--inject-5--inject-31" class="animable" style="transform-origin: 338.47px 98.405px;"><g id="el5tcrko5ikji" class="animable" style="transform-origin: 338.47px 98.405px;"><path d="M363.93,98.41c0,2.15-3.11,3.86-3.65,5.85-.53,1.98,1.27,5.09,.24,6.88-1.04,1.79-4.61,1.76-6.09,3.23s-1.41,5.04-3.23,6.09c-1.82,1.05-4.83-.78-6.88-.24-2.05,.55-3.7,3.65-5.85,3.65s-3.86-3.11-5.85-3.65c-1.98-.53-5.08,1.28-6.88,.24-1.8-1.04-1.75-4.61-3.23-6.09-1.48-1.48-5.03-1.4-6.09-3.23-1.06-1.83,.78-4.85,.24-6.9s-3.65-3.69-3.65-5.85,3.11-3.86,3.65-5.84-1.27-5.09-.24-6.88c1.04-1.79,4.61-1.76,6.09-3.24s1.41-5.03,3.23-6.09c1.82-1.06,4.83,.79,6.88,.24s3.7-3.64,5.85-3.64,3.86,3.11,5.85,3.64c1.98,.52,5.08-1.27,6.88-.24,1.8,1.04,1.75,4.61,3.23,6.09,1.48,1.48,5.03,1.41,6.09,3.24,1.06,1.83-.78,4.83-.24,6.88,.55,2.05,3.65,3.71,3.65,5.85Z" style="fill: rgb(216, 33, 72); transform-origin: 338.47px 98.405px;" id="el6p4cj6mw429" class="animable"></path><path d="M363.93,98.41c0,2.15-3.11,3.86-3.65,5.85-.53,1.98,1.27,5.09,.24,6.88-1.04,1.79-4.61,1.76-6.09,3.23s-1.41,5.04-3.23,6.09c-1.82,1.05-4.83-.78-6.88-.24-2.05,.55-3.7,3.65-5.85,3.65s-3.86-3.11-5.85-3.65c-1.98-.53-5.08,1.28-6.88,.24-1.8-1.04-1.75-4.61-3.23-6.09-1.48-1.48-5.03-1.4-6.09-3.23-1.06-1.83,.78-4.85,.24-6.9s-3.65-3.69-3.65-5.85,3.11-3.86,3.65-5.84-1.27-5.09-.24-6.88c1.04-1.79,4.61-1.76,6.09-3.24s1.41-5.03,3.23-6.09c1.82-1.06,4.83,.79,6.88,.24s3.7-3.64,5.85-3.64,3.86,3.11,5.85,3.64c1.98,.52,5.08-1.27,6.88-.24,1.8,1.04,1.75,4.61,3.23,6.09,1.48,1.48,5.03,1.41,6.09,3.24,1.06,1.83-.78,4.83-.24,6.88,.55,2.05,3.65,3.71,3.65,5.85Z" style="fill: rgb(255, 255, 255); transform-origin: 338.47px 98.405px;" id="elgefwye38w6t" class="animable"></path></g><g id="eltoffnpz4xjo"><circle cx="338.47" cy="98.41" r="18.19" style="fill: rgb(216, 33, 72); transform-origin: 338.47px 98.41px; transform: rotate(-84.1deg);" class="animable"></circle></g></g></g><g id="freepik--Water--inject-31" class="animable animator-hidden" style="transform-origin: 253.295px 459.765px;"><g id="elx3zz436iviq" class="animable" style="transform-origin: 237.37px 459.765px;"><path d="M150.26,441.95c-2.31-.37-7.41,1.32-9.55,2.36-2.13,1.04-3.68,4.04-2.55,6.31,.92,1.85,3.05,2.38,4.92,2.71l32.79,5.91c-6.06,2.62-12.11,5.24-18.17,7.86-.8,.35-1.64,.72-2.21,1.43-1.36,1.7-.53,4.61,1.14,5.93,1.67,1.32,3.84,1.48,5.89,1.59,27.92,1.53,55.88,2.09,83.83,1.66,9.1-.14,18.33-.4,27.05-3.29,2.49-.83,5.32-2.38,5.63-5.26,.41-3.81-3.85-6.04-7.29-6.18-3.44-.14-7.44,.3-9.76-2.54,8.1-4.1,17.32-4.38,26.21-3.92,8.89,.46,17.85,1.58,26.64,.02s17.63-6.3,22.13-14.86l-186.72,.27Z" style="fill: rgb(216, 33, 72); transform-origin: 237.37px 459.765px;" id="elq43hbqwnfkn" class="animable"></path><g id="el1rjlk3luutt"><g style="opacity: 0.8; transform-origin: 237.37px 459.765px;" class="animable"><path d="M150.26,441.95c-2.31-.37-7.41,1.32-9.55,2.36-2.13,1.04-3.68,4.04-2.55,6.31,.92,1.85,3.05,2.38,4.92,2.71l32.79,5.91c-6.06,2.62-12.11,5.24-18.17,7.86-.8,.35-1.64,.72-2.21,1.43-1.36,1.7-.53,4.61,1.14,5.93,1.67,1.32,3.84,1.48,5.89,1.59,27.92,1.53,55.88,2.09,83.83,1.66,9.1-.14,18.33-.4,27.05-3.29,2.49-.83,5.32-2.38,5.63-5.26,.41-3.81-3.85-6.04-7.29-6.18-3.44-.14-7.44,.3-9.76-2.54,8.1-4.1,17.32-4.38,26.21-3.92,8.89,.46,17.85,1.58,26.64,.02s17.63-6.3,22.13-14.86l-186.72,.27Z" style="fill: rgb(255, 255, 255); transform-origin: 237.37px 459.765px;" id="elp74a5zhniol" class="animable"></path></g></g></g><g id="elbslu1l89b6k" class="animable" style="transform-origin: 253.295px 448.995px;"><g id="elyfksqp9y04" class="animable" style="transform-origin: 243.2px 449.025px;"><path d="M375.07,442.26H111.33c-.14,0-.25-.11-.25-.25s.11-.25,.25-.25H375.07c.14,0,.25,.11,.25,.25s-.11,.25-.25,.25Z" style="fill: rgb(38, 50, 56); transform-origin: 243.2px 442.01px;" id="elf7666ad1uqt" class="animable"></path><path d="M245.58,450.44h-97.1c-.14,0-.25-.11-.25-.25s.11-.25,.25-.25h97.1c.14,0,.25,.11,.25,.25s-.11,.25-.25,.25Z" style="fill: rgb(38, 50, 56); transform-origin: 197.03px 450.19px;" id="elyv7ag9vcun9" class="animable"></path><path d="M316.2,450.44h-45.17c-.14,0-.25-.11-.25-.25s.11-.25,.25-.25h45.17c.14,0,.25,.11,.25,.25s-.11,.25-.25,.25Z" style="fill: rgb(38, 50, 56); transform-origin: 293.615px 450.19px;" id="el40202qm956q" class="animable"></path><path d="M217.14,456.29h-38.1c-.14,0-.25-.11-.25-.25s.11-.25,.25-.25h38.1c.14,0,.25,.11,.25,.25s-.11,.25-.25,.25Z" style="fill: rgb(38, 50, 56); transform-origin: 198.09px 456.04px;" id="elbkkov443odg" class="animable"></path></g><path d="M395.26,442.2h-8.86c-.14,0-.25-.11-.25-.25s.11-.25,.25-.25h8.86c.14,0,.25,.11,.25,.25s-.11,.25-.25,.25Z" style="fill: rgb(38, 50, 56); transform-origin: 390.83px 441.95px;" id="elom44fne61rf" class="animable"></path></g></g><g id="freepik--Lines--inject-31" class="animable" style="transform-origin: 93.3px 178.7px;"><g id="elfpw5hvik0u4" class="animable" style="transform-origin: 93.3px 178.7px;"><rect x="64.73" y="181.02" width="42.7" height=".5" style="fill: rgb(38, 50, 56); transform-origin: 86.08px 181.27px;" id="eloydph6v02eh" class="animable"></rect><rect x="79.17" y="175.88" width="42.7" height=".5" style="fill: rgb(38, 50, 56); transform-origin: 100.52px 176.13px;" id="el1llld1mrza6" class="animable"></rect></g></g><g id="freepik--Boat--inject-31" class="animable" style="transform-origin: 269.383px 254.06px;"><g id="el1sm9eay4an9" class="animable" style="transform-origin: 269.383px 254.06px;"><path d="M110.41,211.59l-.21-.46c10.4-4.75,24.32-13.31,41.39-25.43l.29,.41c-17.09,12.14-31.05,20.71-41.47,25.48Z" style="fill: rgb(38, 50, 56); transform-origin: 131.04px 198.645px;" id="eltuem1z6yt0s" class="animable"></path><polygon points="456.74 284.6 329.57 193.59 285.84 208.51 285.68 208.04 329.65 193.03 329.76 193.11 457.03 284.19 456.74 284.6" style="fill: rgb(38, 50, 56); transform-origin: 371.355px 238.815px;" id="el0wt1xfrbh0yf" class="animable"></polygon><polygon points="289.36 222.85 225.92 208.36 121.01 212.84 120.99 212.34 225.97 207.86 226 207.87 289.47 222.36 289.36 222.85" style="fill: rgb(38, 50, 56); transform-origin: 205.23px 215.355px;" id="eladvotzjceld" class="animable"></polygon><polygon points="328.97 167.16 320.3 381.43 329.64 381.43 330.77 167.16 328.97 167.16" style="fill: rgb(216, 33, 72); transform-origin: 325.535px 274.295px;" id="el08454fl2hisx" class="animable"></polygon><polygon points="246.83 125.01 221.25 72.78 161.43 116.76 160.84 115.95 221.62 71.26 247.73 124.57 246.83 125.01" style="fill: rgb(38, 50, 56); transform-origin: 204.285px 98.135px;" id="elt0sb3jukfsm" class="animable"></polygon><path d="M159.21,374.49l-.33-.37c6.15-5.5,11.5-11.82,15.9-18.81l.42,.27c-4.42,7.02-9.81,13.38-15.99,18.91Z" style="fill: rgb(38, 50, 56); transform-origin: 167.04px 364.9px;" id="elwacvvukwdze" class="animable"></path><path d="M86.12,357.21l-.48-.13c12.98-47.3,21.92-96.03,26.57-144.86l.5,.05c-4.65,48.85-13.6,97.62-26.58,144.94Z" style="fill: rgb(38, 50, 56); transform-origin: 99.175px 284.715px;" id="elozs3cs4psdq" class="animable"></path><g id="elvdmpx7je3wo"><rect x="41.41" y="293.73" width="133.37" height=".5" style="fill: rgb(38, 50, 56); transform-origin: 108.095px 293.98px; transform: rotate(-78.73deg);" class="animable"></rect></g><polygon points="121 228.55 112.92 361.02 120.48 361.02 123.57 228.55 121 228.55" style="fill: rgb(216, 33, 72); transform-origin: 118.245px 294.785px;" id="elcm8k7r62yi" class="animable"></polygon><g id="elvupxo6xctp"><path d="M119.22,257.78l3.65,.84s-.1,4.23-.1,4.24c0,0-3.81-.85-3.81-.85l.26-4.23Z" style="opacity: 0.2; transform-origin: 120.915px 260.32px;" class="animable"></path></g><path d="M80.4,354.39c0,1.87,15.63,73.53,69.85,87.56l188.67-.13c3.97-3.97,12.62-43.48,16.36-53.29l4.67-2.34s-.84-13.4,6.37-16.37c7.21-2.97,16.12-5.94,16.76-14v-2.12l-78.91,21.21-13.79,15.27-74.46,4.03-16.97-22.7-36.91-2.97-11.88-10.18-69.77-3.97Z" style="fill: rgb(216, 33, 72); transform-origin: 231.735px 397.825px;" id="eladg0v594gj8" class="animable"></path><path d="M339.2,441.49c4.9-12.78,8.25-26.1,11.79-39.3,3.05-11.55,5.85-23.25,8.43-34.92l1.07-5.02c-2.03,13.56-5.15,26.92-8.54,40.2-3.64,13.19-7.11,26.55-12.75,39.05h0Z" style="fill: rgb(38, 50, 56); transform-origin: 349.845px 401.875px;" id="el837bkp2iqa7" class="animable"></path><path d="M335.43,441.2c7.9-25.94,14.56-52.37,19.97-78.96-4.09,26.87-10.79,53.38-19.97,78.96h0Z" style="fill: rgb(38, 50, 56); transform-origin: 345.415px 401.72px;" id="els3nppoz0mlo" class="animable"></path><g id="elhqq0jf1t0jf" class="animable" style="transform-origin: 116.7px 351.349px;"><path d="M82.96,346.13c17.53,1.05,35.06,2.09,52.59,3.14,4.96,.3,9.93,.59,14.89,.89,1.81,.11,1.8-2.71,0-2.81-17.53-1.05-35.06-2.09-52.59-3.14-4.96-.3-9.93-.59-14.89-.89-1.81-.11-1.8,2.71,0,2.81h0Z" style="fill: rgb(216, 33, 72); transform-origin: 116.7px 346.74px;" id="el747x8e2b6kt" class="animable"></path><path d="M95.7,345.9l-.2,8.85c-.02,.74,.66,1.44,1.41,1.41,.78-.03,1.39-.62,1.41-1.41,.07-2.95,.13-5.9,.2-8.85,.02-.74-.66-1.44-1.41-1.41-.78,.03-1.39,.62-1.41,1.41h0Z" style="fill: rgb(216, 33, 72); transform-origin: 97.01px 350.325px;" id="eljvumqbc0sgo" class="animable"></path><path d="M85.81,345.26c-.07,2.95-.13,5.9-.2,8.85-.02,.74,.66,1.44,1.41,1.41,.78-.03,1.39-.62,1.41-1.41l.2-8.85c.02-.74-.66-1.44-1.41-1.41-.78,.03-1.39,.62-1.41,1.41h0Z" style="fill: rgb(216, 33, 72); transform-origin: 87.12px 349.685px;" id="elgfiozz1yg7a" class="animable"></path><path d="M105.59,346.7l-.2,8.85c-.02,.74,.66,1.44,1.41,1.41,.78-.03,1.39-.62,1.41-1.41,.07-2.95,.13-5.9,.2-8.85,.02-.74-.66-1.44-1.41-1.41-.78,.03-1.39,.62-1.41,1.41h0Z" style="fill: rgb(216, 33, 72); transform-origin: 106.9px 351.125px;" id="el7npvdz09gy2" class="animable"></path><path d="M115.48,347.51c-.07,2.95-.13,5.9-.2,8.85-.02,.74,.66,1.44,1.41,1.41,.78-.03,1.39-.62,1.41-1.41l.2-8.85c.02-.74-.66-1.44-1.41-1.41-.78,.03-1.39,.62-1.41,1.41h0Z" style="fill: rgb(216, 33, 72); transform-origin: 116.79px 351.935px;" id="eliqpwm2fbmg" class="animable"></path><path d="M125.36,348.31c-.07,2.95-.13,5.9-.2,8.85-.02,.74,.66,1.44,1.41,1.41,.78-.03,1.39-.62,1.41-1.41,.07-2.95,.13-5.9,.2-8.85,.02-.74-.66-1.44-1.41-1.41-.78,.03-1.39,.62-1.41,1.41h0Z" style="fill: rgb(216, 33, 72); transform-origin: 126.67px 352.735px;" id="elwqogs4hvyu" class="animable"></path><path d="M135.25,349.12l-.2,8.85c-.02,.74,.66,1.44,1.41,1.41,.78-.03,1.39-.62,1.41-1.41,.07-2.95,.13-5.9,.2-8.85,.02-.74-.66-1.44-1.41-1.41-.78,.03-1.39,.62-1.41,1.41h0Z" style="fill: rgb(216, 33, 72); transform-origin: 136.56px 353.545px;" id="elrhimqqb6lbe" class="animable"></path><path d="M145.66,348.91l-.2,8.85c-.02,.74,.66,1.44,1.41,1.41,.78-.03,1.39-.62,1.41-1.41,.07-2.95,.13-5.9,.2-8.85,.02-.74-.66-1.44-1.41-1.41-.78,.03-1.39,.62-1.41,1.41h0Z" style="fill: rgb(216, 33, 72); transform-origin: 146.97px 353.335px;" id="elxgfdp7r07r" class="animable"></path><g id="el95z07tl7qz"><g style="opacity: 0.3; transform-origin: 116.7px 351.349px;" class="animable"><path d="M82.96,346.13c17.53,1.05,35.06,2.09,52.59,3.14,4.96,.3,9.93,.59,14.89,.89,1.81,.11,1.8-2.71,0-2.81-17.53-1.05-35.06-2.09-52.59-3.14-4.96-.3-9.93-.59-14.89-.89-1.81-.11-1.8,2.71,0,2.81h0Z" id="eleriqahwwbjd" class="animable" style="transform-origin: 116.7px 346.74px;"></path><path d="M95.7,345.9l-.2,8.85c-.02,.74,.66,1.44,1.41,1.41,.78-.03,1.39-.62,1.41-1.41,.07-2.95,.13-5.9,.2-8.85,.02-.74-.66-1.44-1.41-1.41-.78,.03-1.39,.62-1.41,1.41h0Z" id="elbsbs59x7ezk" class="animable" style="transform-origin: 97.01px 350.325px;"></path><path d="M85.81,345.26c-.07,2.95-.13,5.9-.2,8.85-.02,.74,.66,1.44,1.41,1.41,.78-.03,1.39-.62,1.41-1.41l.2-8.85c.02-.74-.66-1.44-1.41-1.41-.78,.03-1.39,.62-1.41,1.41h0Z" id="el22l0nvhv2oz" class="animable" style="transform-origin: 87.12px 349.685px;"></path><path d="M105.59,346.7l-.2,8.85c-.02,.74,.66,1.44,1.41,1.41,.78-.03,1.39-.62,1.41-1.41,.07-2.95,.13-5.9,.2-8.85,.02-.74-.66-1.44-1.41-1.41-.78,.03-1.39,.62-1.41,1.41h0Z" id="elbkp4b6sj43e" class="animable" style="transform-origin: 106.9px 351.125px;"></path><path d="M115.48,347.51c-.07,2.95-.13,5.9-.2,8.85-.02,.74,.66,1.44,1.41,1.41,.78-.03,1.39-.62,1.41-1.41l.2-8.85c.02-.74-.66-1.44-1.41-1.41-.78,.03-1.39,.62-1.41,1.41h0Z" id="elznnkoifx2l" class="animable" style="transform-origin: 116.79px 351.935px;"></path><path d="M125.36,348.31c-.07,2.95-.13,5.9-.2,8.85-.02,.74,.66,1.44,1.41,1.41,.78-.03,1.39-.62,1.41-1.41,.07-2.95,.13-5.9,.2-8.85,.02-.74-.66-1.44-1.41-1.41-.78,.03-1.39,.62-1.41,1.41h0Z" id="elkcy40p900ig" class="animable" style="transform-origin: 126.67px 352.735px;"></path><path d="M135.25,349.12l-.2,8.85c-.02,.74,.66,1.44,1.41,1.41,.78-.03,1.39-.62,1.41-1.41,.07-2.95,.13-5.9,.2-8.85,.02-.74-.66-1.44-1.41-1.41-.78,.03-1.39,.62-1.41,1.41h0Z" id="el4bbh4h81wid" class="animable" style="transform-origin: 136.56px 353.545px;"></path><path d="M145.66,348.91l-.2,8.85c-.02,.74,.66,1.44,1.41,1.41,.78-.03,1.39-.62,1.41-1.41,.07-2.95,.13-5.9,.2-8.85,.02-.74-.66-1.44-1.41-1.41-.78,.03-1.39,.62-1.41,1.41h0Z" id="elky0nl9euwg" class="animable" style="transform-origin: 146.97px 353.335px;"></path></g></g></g><polygon points="223.94 66.17 220.14 66.17 220.14 398.65 231.75 398.65 223.94 66.17" style="fill: rgb(216, 33, 72); transform-origin: 225.945px 232.41px;" id="elwpsvwk9pn7" class="animable"></polygon><path d="M127.09,212.59s62.95,92.15,47.31,143.61c0,0,21.14-19.99,75.26-19.14,54.12,.85,63.42,12.59,63.42,12.59,0,0-.09-114.13-22.41-126.32l-163.57-10.74Z" style="fill: rgb(38, 50, 56); transform-origin: 220.085px 284.395px;" id="eli5o1hdjwjy" class="animable"></path><g id="elbzmdym8jkz"><path d="M128.18,214.22c.93,1.41,60.57,11.13,91.96,12.9,31.4,1.77,69.27-3.12,69.27-3.12l-161.24-9.78Z" style="opacity: 0.2; transform-origin: 208.79px 220.863px;" class="animable"></path></g><path d="M147.72,188.62s22.24-43.82,13.42-72.26c0,0,61.39-1.96,85.05,8.79,23.66,10.75,32.17,69.59,32.17,69.59,0,0-11.65-18.73-62.85-17.34-51.2,1.39-67.79,11.22-67.79,11.22Z" style="fill: rgb(38, 50, 56); transform-origin: 213.04px 155.48px;" id="el7lbxpnrtkcp" class="animable"></path><g id="elog9cv0c72a"><path d="M161.13,116.36s35.93,8.88,59.62,10.31c23.69,1.44,26.53-1.87,26.53-1.87,0,0-66.1-11.33-86.15-8.44Z" style="opacity: 0.3; transform-origin: 204.205px 121.461px;" class="animable"></path></g><path d="M275.25,220.91l-.44-.24c3.34-5.97,7.24-15.45,2.58-28.78l.47-.17c4.72,13.52,.77,23.13-2.62,29.19Z" style="fill: rgb(38, 50, 56); transform-origin: 277.421px 206.315px;" id="elho3z0015bpp" class="animable"></path><path d="M154.78,116.18c13.45-.04,26.9,.81,40.28,2.12,14.1,1.38,28.16,3.29,42.12,5.75,7.27,1.28,14.52,2.71,21.72,4.34,1.76,.4,2.52-2.31,.75-2.71-13.26-3.01-26.66-5.35-40.12-7.26-14.08-1.99-28.23-3.51-42.43-4.37-7.43-.45-14.88-.71-22.32-.69-1.81,0-1.81,2.82,0,2.81h0Z" style="fill: rgb(216, 33, 72); transform-origin: 207.04px 120.895px;" id="elj5bqh5hj51j" class="animable"></path><path d="M122.19,221.29v5.41c0,.48,.75,.48,.75,0v-5.41c0-.48-.75-.48-.75,0h0Z" style="fill: rgb(216, 33, 72); transform-origin: 122.565px 223.995px;" id="el10030jm87x8" class="animable"></path><path d="M125.34,228.03c0,1.53-1.24,2.77-2.77,2.77s-2.77-1.24-2.77-2.77,1.24-2.77,2.77-2.77,2.77,1.24,2.77,2.77Z" style="fill: rgb(216, 33, 72); transform-origin: 122.57px 228.03px;" id="elkkbt6iwfods" class="animable"></path><path d="M285.76,208.27c1.92,2.33,57.18,70.94,33,120,0,0,23.73-20.32,41.75-20.7,0,0,1.53,12.65-3.07,24.92,0,0,20.32-10.73,20.32-27.6s-18.03-82.98-49.29-89.5c-24.48-5.1-42.7-7.12-42.7-7.12Z" style="fill: rgb(38, 50, 56); transform-origin: 331.76px 270.38px;" id="elg5508yahe5" class="animable"></path><g id="elylfihzm7os"><path d="M288.57,211.19s21.25,6.07,36.96,8.56c15.71,2.49,12.71-.94,12.71-.47s-44.27-8.25-49.67-8.09Z" style="opacity: 0.3; transform-origin: 313.52px 215.927px;" class="animable"></path></g><path d="M282.75,210.65c14.63,1.68,29.18,3.77,43.62,6.66,4.5,.9,8.99,1.85,13.48,2.83,1.88,.41,2.69-2.48,.8-2.89-14.58-3.18-29.22-5.92-44.02-7.89-4.62-.61-9.25-1.17-13.88-1.7-1.91-.22-1.9,2.78,0,3h0Z" style="fill: rgb(216, 33, 72); transform-origin: 311.524px 213.914px;" id="elwjlbtsue1" class="animable"></path><path d="M459.32,281.28c-1.24,.93-124.84,86.88-124.84,86.88l18.45-4.42,107.94-80.42-1.55-2.04Z" style="fill: rgb(216, 33, 72); transform-origin: 397.675px 324.72px;" id="el9ior6ikjzd8" class="animable"></path><path d="M328.32,367.84l-.38-.32c1.24-1.45,30.46-35.61,31.71-36.63l.31,.39c-.97,.79-21.12,24.26-31.64,36.56Z" style="fill: rgb(38, 50, 56); transform-origin: 343.95px 349.365px;" id="el3erxeu7k056" class="animable"></path><path d="M241.4,393.87l-.09-.49c19.58-3.71,64.95-30.63,78.25-66.75l.47,.17c-7.67,20.84-24.78,36.72-37.78,46.37-16.2,12.03-32.19,19.07-40.85,20.71Z" style="fill: rgb(38, 50, 56); transform-origin: 280.67px 360.255px;" id="elyzr95ekexrl" class="animable"></path><path d="M215.93,396.71c-.79,0-1.53-.37-2-1l-16.29-21.79-35.79-2.88c-.53-.04-1.03-.25-1.43-.59l-11.24-9.63-68.93-3.92c-1.38-.08-2.43-1.26-2.35-2.64,.08-1.38,1.27-2.44,2.64-2.35l69.77,3.97c.55,.03,1.07,.24,1.48,.6l11.26,9.65,36.1,2.9c.72,.06,1.37,.42,1.8,1l16.17,21.63,72.09-3.9,13.1-14.51c.33-.36,.75-.62,1.22-.74l79.99-21.13c1.33-.35,2.7,.44,3.06,1.78s-.44,2.7-1.78,3.06l-79.27,20.95-13.29,14.72c-.44,.49-1.06,.79-1.72,.82l-74.46,4.03s-.09,0-.14,0Z" style="fill: rgb(216, 33, 72); transform-origin: 232.281px 374.019px;" id="elrcabdxhfug" class="animable"></path><g id="elljzj7knilvq"><path d="M229.09,417.77c-4.07,0-7.42-3.05-7.89-6.99-.04,.32-.06,.64-.06,.97,0,4.4,3.56,7.96,7.96,7.96s7.96-3.56,7.96-7.96c0-.33-.03-.65-.06-.97-.48,3.94-3.83,6.99-7.89,6.99Z" style="opacity: 0.3; transform-origin: 229.1px 415.245px;" class="animable"></path></g><g id="elulsdtfdiw1"><path d="M253.53,417.97c-4.07,0-7.42-3.05-7.89-6.99-.04,.32-.06,.64-.06,.97,0,4.4,3.56,7.96,7.96,7.96s7.96-3.56,7.96-7.96c0-.33-.03-.65-.06-.97-.48,3.94-3.83,6.99-7.89,6.99Z" style="opacity: 0.3; transform-origin: 253.54px 415.445px;" class="animable"></path></g><g id="el31hfulv3huw"><path d="M275.72,418.18c-4.07,0-7.42-3.05-7.89-6.99-.04,.32-.06,.64-.06,.97,0,4.4,3.56,7.96,7.96,7.96s7.96-3.56,7.96-7.96c0-.33-.03-.65-.06-.97-.48,3.94-3.83,6.99-7.89,6.99Z" style="opacity: 0.3; transform-origin: 275.73px 415.655px;" class="animable"></path></g><g id="el8ow591ob17s" class="animable" style="transform-origin: 252.405px 409.64px;"><g id="el34vnuinosi"><circle cx="229.09" cy="409.64" r="7.17" style="fill: rgb(255, 255, 255); opacity: 0.6; transform-origin: 229.09px 409.64px;" class="animable"></circle></g><g id="elocax80o5kvl"><circle cx="253.32" cy="409.64" r="7.17" style="fill: rgb(255, 255, 255); opacity: 0.6; transform-origin: 253.32px 409.64px;" class="animable"></circle></g><g id="ell0oiwch0ee"><circle cx="275.72" cy="409.64" r="7.17" style="fill: rgb(255, 255, 255); opacity: 0.6; transform-origin: 275.72px 409.64px;" class="animable"></circle></g><path d="M229.09,418.31c-4.78,0-8.67-3.89-8.67-8.67s3.89-8.67,8.67-8.67,8.67,3.89,8.67,8.67-3.89,8.67-8.67,8.67Zm0-14.35c-3.13,0-5.67,2.54-5.67,5.67s2.54,5.67,5.67,5.67,5.67-2.54,5.67-5.67-2.55-5.67-5.67-5.67Z" style="fill: rgb(38, 50, 56); transform-origin: 229.09px 409.64px;" id="el1fai7pdrw9" class="animable"></path><path d="M253.32,418.31c-4.78,0-8.67-3.89-8.67-8.67s3.89-8.67,8.67-8.67,8.67,3.89,8.67,8.67-3.89,8.67-8.67,8.67Zm0-14.35c-3.13,0-5.67,2.54-5.67,5.67s2.54,5.67,5.67,5.67,5.67-2.54,5.67-5.67-2.54-5.67-5.67-5.67Z" style="fill: rgb(38, 50, 56); transform-origin: 253.32px 409.64px;" id="el8oaq7zvzheq" class="animable"></path><path d="M275.72,418.31c-4.78,0-8.67-3.89-8.67-8.67s3.89-8.67,8.67-8.67,8.67,3.89,8.67,8.67-3.89,8.67-8.67,8.67Zm0-14.35c-3.13,0-5.67,2.54-5.67,5.67s2.54,5.67,5.67,5.67,5.67-2.54,5.67-5.67-2.54-5.67-5.67-5.67Z" style="fill: rgb(38, 50, 56); transform-origin: 275.72px 409.64px;" id="elfvqdknlvbz6" class="animable"></path></g><g id="ell22wvlp1n5"><path d="M215.93,396.71c-.79,0-1.53-.37-2-1l-16.29-21.79-35.79-2.88c-.53-.04-1.03-.25-1.43-.59l-11.24-9.63-68.93-3.92c-1.38-.08-2.43-1.26-2.35-2.64,.08-1.38,1.27-2.44,2.64-2.35l69.77,3.97c.55,.03,1.07,.24,1.48,.6l11.26,9.65,36.1,2.9c.72,.06,1.37,.42,1.8,1l16.17,21.63,72.09-3.9,13.1-14.51c.33-.36,.75-.62,1.22-.74l79.99-21.13c1.33-.35,2.7,.44,3.06,1.78s-.44,2.7-1.78,3.06l-79.27,20.95-13.29,14.72c-.44,.49-1.06,.79-1.72,.82l-74.46,4.03s-.09,0-.14,0Z" style="opacity: 0.3; transform-origin: 232.281px 374.019px;" class="animable"></path></g><path d="M110.72,213.41c24.42,.85,48.8,2.46,73.16,4.2,24.61,1.76,49.22,3.69,73.85,5.2,13.53,.83,27.07,1.54,40.62,2.01,1.93,.07,1.93-2.93,0-3-24.42-.85-48.8-2.46-73.16-4.2s-49.22-3.69-73.85-5.2c-13.53-.83-27.07-1.54-40.62-2.01-1.93-.07-1.93,2.93,0,3h0Z" style="fill: rgb(216, 33, 72); transform-origin: 204.535px 217.615px;" id="els1p5j5eq3g" class="animable"></path><g id="eld1f3rwovpvq" class="animable" style="transform-origin: 342.899px 357.152px;"><path d="M305.84,364.51c19.47-5.14,38.93-10.29,58.4-15.43,5.51-1.46,11.03-2.91,16.54-4.37,2.01-.53,1.14-3.21-.86-2.68-19.47,5.14-38.93,10.29-58.4,15.43-5.51,1.46-11.03,2.91-16.54,4.37-2.01,.53-1.14,3.21,.86,2.68h0Z" style="fill: rgb(216, 33, 72); transform-origin: 342.88px 353.27px;" id="elmxkn7ibn58" class="animable"></path><path d="M317.71,360.46c.84,2.83,1.67,5.66,2.51,8.49,.21,.71,1.07,1.17,1.77,.91,.73-.27,1.13-1.01,.91-1.77-.84-2.83-1.67-5.66-2.51-8.49-.21-.71-1.07-1.17-1.77-.91-.73,.27-1.13,1.01-.91,1.77h0Z" style="fill: rgb(216, 33, 72); transform-origin: 320.305px 364.275px;" id="elu8itk16xo4e" class="animable"></path><path d="M308.1,362.87c.84,2.83,1.67,5.66,2.51,8.49,.21,.71,1.07,1.17,1.77,.91,.73-.27,1.13-1.01,.91-1.77-.84-2.83-1.67-5.66-2.51-8.49-.21-.71-1.07-1.17-1.77-.91-.73,.27-1.13,1.01-.91,1.77h0Z" style="fill: rgb(216, 33, 72); transform-origin: 310.695px 366.685px;" id="elnn63jthk14d" class="animable"></path><path d="M327.37,358.2c.84,2.83,1.67,5.66,2.51,8.49,.21,.71,1.07,1.17,1.77,.91,.73-.27,1.13-1.01,.91-1.77-.84-2.83-1.67-5.66-2.51-8.49-.21-.71-1.07-1.17-1.77-.91-.73,.27-1.13,1.01-.91,1.77h0Z" style="fill: rgb(216, 33, 72); transform-origin: 329.965px 362.015px;" id="elri8z81663l" class="animable"></path><path d="M337.03,355.95c.84,2.83,1.67,5.66,2.51,8.49,.21,.71,1.07,1.17,1.77,.91,.73-.27,1.13-1.01,.91-1.77-.84-2.83-1.67-5.66-2.51-8.49-.21-.71-1.07-1.17-1.77-.91-.73,.27-1.13,1.01-.91,1.77h0Z" style="fill: rgb(216, 33, 72); transform-origin: 339.625px 359.765px;" id="eldik3micat5" class="animable"></path><path d="M346.7,353.7c.84,2.83,1.67,5.66,2.51,8.49,.21,.71,1.07,1.17,1.77,.91,.73-.27,1.13-1.01,.91-1.77-.84-2.83-1.67-5.66-2.51-8.49-.21-.71-1.07-1.17-1.77-.91-.73,.27-1.13,1.01-.91,1.77h0Z" style="fill: rgb(216, 33, 72); transform-origin: 349.295px 357.515px;" id="elm2d0sgo8koj" class="animable"></path><path d="M356.36,351.45c.84,2.83,1.67,5.66,2.51,8.49,.21,.71,1.07,1.17,1.77,.91,.73-.27,1.13-1.01,.91-1.77-.84-2.83-1.67-5.66-2.51-8.49-.21-.71-1.07-1.17-1.77-.91-.73,.27-1.13,1.01-.91,1.77h0Z" style="fill: rgb(216, 33, 72); transform-origin: 358.955px 355.265px;" id="eluuagz3677q" class="animable"></path><path d="M366.2,348.07c.84,2.83,1.67,5.66,2.51,8.49,.21,.71,1.07,1.17,1.77,.91,.73-.27,1.13-1.01,.91-1.77-.84-2.83-1.67-5.66-2.51-8.49-.21-.71-1.07-1.17-1.77-.91-.73,.27-1.13,1.01-.91,1.77h0Z" style="fill: rgb(216, 33, 72); transform-origin: 368.795px 351.885px;" id="elvc3aolml1b" class="animable"></path><path d="M376.71,345.27l2.51,8.49c.21,.71,1.07,1.17,1.77,.91,.73-.27,1.13-1.01,.91-1.77-.84-2.83-1.67-5.66-2.51-8.49-.21-.71-1.07-1.17-1.77-.91-.73,.27-1.13,1.01-.91,1.77h0Z" style="fill: rgb(216, 33, 72); transform-origin: 379.305px 349.085px;" id="el4723favli78" class="animable"></path><g id="elkyesm01acf"><g style="opacity: 0.3; transform-origin: 342.894px 357.157px;" class="animable"><path d="M305.84,364.51c19.46-5.14,38.91-10.28,58.37-15.42,5.51-1.46,11.02-2.91,16.53-4.37,2.01-.53,1.14-3.21-.86-2.68-19.46,5.14-38.91,10.28-58.37,15.42-5.51,1.46-11.02,2.91-16.53,4.37-2.01,.53-1.14,3.21,.86,2.68h0Z" id="elmhcmgvndu1" class="animable" style="transform-origin: 342.86px 353.275px;"></path><path d="M317.71,360.46c.84,2.83,1.67,5.66,2.51,8.49,.21,.71,1.07,1.17,1.77,.91,.73-.27,1.13-1.01,.91-1.77-.84-2.83-1.67-5.66-2.51-8.49-.21-.71-1.07-1.17-1.77-.91-.73,.27-1.13,1.01-.91,1.77h0Z" id="el5csrusb0sdt" class="animable" style="transform-origin: 320.305px 364.275px;"></path><path d="M308.1,362.87c.84,2.83,1.67,5.66,2.51,8.49,.21,.71,1.07,1.17,1.77,.91,.73-.27,1.13-1.01,.91-1.77-.84-2.83-1.67-5.66-2.51-8.49-.21-.71-1.07-1.17-1.77-.91-.73,.27-1.13,1.01-.91,1.77h0Z" id="elecdw6vby07" class="animable" style="transform-origin: 310.695px 366.685px;"></path><path d="M327.37,358.2c.84,2.83,1.67,5.66,2.51,8.49,.21,.71,1.07,1.17,1.77,.91,.73-.27,1.13-1.01,.91-1.77-.84-2.83-1.67-5.66-2.51-8.49-.21-.71-1.07-1.17-1.77-.91-.73,.27-1.13,1.01-.91,1.77h0Z" id="ella08v1edv5" class="animable" style="transform-origin: 329.965px 362.015px;"></path><path d="M337.03,355.95c.84,2.83,1.67,5.66,2.51,8.49,.21,.71,1.07,1.17,1.77,.91,.73-.27,1.13-1.01,.91-1.77-.84-2.83-1.67-5.66-2.51-8.49-.21-.71-1.07-1.17-1.77-.91-.73,.27-1.13,1.01-.91,1.77h0Z" id="eluiogswad9gn" class="animable" style="transform-origin: 339.625px 359.765px;"></path><path d="M346.7,353.7c.84,2.83,1.67,5.66,2.51,8.49,.21,.71,1.07,1.17,1.77,.91,.73-.27,1.13-1.01,.91-1.77-.84-2.83-1.67-5.66-2.51-8.49-.21-.71-1.07-1.17-1.77-.91-.73,.27-1.13,1.01-.91,1.77h0Z" id="el2y4q7f2btxh" class="animable" style="transform-origin: 349.295px 357.515px;"></path><path d="M356.36,351.45c.84,2.83,1.67,5.66,2.51,8.49,.21,.71,1.07,1.17,1.77,.91,.73-.27,1.13-1.01,.91-1.77-.84-2.83-1.67-5.66-2.51-8.49-.21-.71-1.07-1.17-1.77-.91-.73,.27-1.13,1.01-.91,1.77h0Z" id="els52nn5t5i39" class="animable" style="transform-origin: 358.955px 355.265px;"></path><path d="M366.2,348.07c.84,2.83,1.67,5.66,2.51,8.49,.21,.71,1.07,1.17,1.77,.91,.73-.27,1.13-1.01,.91-1.77-.84-2.83-1.67-5.66-2.51-8.49-.21-.71-1.07-1.17-1.77-.91-.73,.27-1.13,1.01-.91,1.77h0Z" id="elwxlq9u7lu4" class="animable" style="transform-origin: 368.795px 351.885px;"></path><path d="M376.7,345.26c.84,2.83,1.67,5.66,2.51,8.49,.21,.71,1.07,1.17,1.77,.91,.73-.27,1.13-1.01,.91-1.77l-2.51-8.49c-.21-.71-1.07-1.17-1.77-.91-.73,.27-1.13,1.01-.91,1.77h0Z" id="elcgev5jbwch6" class="animable" style="transform-origin: 379.295px 349.075px;"></path></g></g></g><g id="elzjyotja7v9"><path d="M83.63,362.68c23.01-.11,47.39,1.39,70.4,2.62-22.7,.13-47.66-1.43-70.4-2.62h0Z" style="opacity: 0.3; transform-origin: 118.83px 363.991px;" class="animable"></path></g><g id="elhmy9hvpsaou"><path d="M93.3,390.67c38.53,.35,81.34,1.48,119.87,3.14-38.56-.36-81.36-1.47-119.87-3.14h0Z" style="opacity: 0.3; transform-origin: 153.235px 392.24px;" class="animable"></path></g><g id="el9sdun6o0ntf"><path d="M290.34,392.03c19.37-.14,38.86,.39,58.2,1.59-19.38,.14-38.87-.39-58.2-1.59h0Z" style="opacity: 0.3; transform-origin: 319.44px 392.825px;" class="animable"></path></g><g id="eldnl5u695fwr"><path d="M115.28,421.45c72.13,.61,153.03,2.01,225.14,3.93-72.13-.6-153.03-2.02-225.14-3.93h0Z" style="opacity: 0.3; transform-origin: 227.85px 423.415px;" class="animable"></path></g><path d="M135.37,355.74l-.45-.22c6.68-13.68,13.6-27.82,18.65-42.44,5.72-16.54,8.28-31.39,7.83-45.4l.5-.02c.45,14.07-2.12,28.98-7.86,45.58-5.07,14.66-11.99,28.81-18.68,42.5Z" style="fill: rgb(38, 50, 56); transform-origin: 148.435px 311.7px;" id="elqdl2ykuw4fm" class="animable"></path><g id="elr95l7c4ds0f"><path d="M220.08,206.7s.2,1.65,0,1.66c-.2,0,1.35,1.91,4.29,1.65,2.94-.26,2.91-1.64,2.91-1.64,0,0,.13-2.4-.06-2.4s-7.14,.74-7.14,.74Z" style="opacity: 0.2; transform-origin: 223.693px 208.002px;" class="animable"></path></g><g id="eljlzqcvognc" class="animable" style="transform-origin: 222.995px 195.756px;"><path d="M208.66,186.05c0,1.81-.33,20.35,14.77,21.17,15.1,.82,14.28-21.17,14.28-21.17h-29.05Z" style="fill: rgb(216, 33, 72); transform-origin: 223.189px 196.646px;" id="el35pz3otr3oo" class="animable"></path><g id="elwcflzcekhw"><path d="M208.66,186.05c0,1.81-.33,20.35,14.77,21.17,15.1,.82,14.28-21.17,14.28-21.17h-29.05Z" style="opacity: 0.3; transform-origin: 223.189px 196.646px;" class="animable"></path></g><path d="M237.9,187.56h-29.81c-.91,0-1.64-.74-1.64-1.65h0c0-.91,.74-1.64,1.64-1.64h29.81c.91,0,1.64,.74,1.64,1.64h0c0,.91-.74,1.65-1.64,1.65Z" style="fill: rgb(216, 33, 72); transform-origin: 222.995px 185.915px;" id="elna7wil9g43f" class="animable"></path><g id="elyx4gx5c277f"><path d="M237.9,187.56h-29.81c-.91,0-1.64-.74-1.64-1.65h0c0-.91,.74-1.64,1.64-1.64h29.81c.91,0,1.64,.74,1.64,1.64h0c0,.91-.74,1.65-1.64,1.65Z" style="opacity: 0.4; transform-origin: 222.995px 185.915px;" class="animable"></path></g></g><g id="eliwwvojf0dy"><polygon points="220.16 118.5 225.24 119.18 225.08 114.77 220.14 114.51 220.16 118.5" style="opacity: 0.3; transform-origin: 222.69px 116.845px;" class="animable"></polygon></g><g id="el208b2ics7q1"><polygon points="326.89 214.3 330.77 215.36 330.53 212.59 327.16 211.91 326.89 214.3" style="opacity: 0.3; transform-origin: 328.83px 213.635px;" class="animable"></polygon></g><g id="elv468utncgi"><path d="M360.51,307.58s9.05-.77,10.95,4.12c1.9,4.89-13.81,20.28-13.61,19.66,.2-.62,2.38-7.87,2.64-12.74s.56-11.06,.02-11.04Z" style="opacity: 0.3; transform-origin: 364.734px 319.457px;" class="animable"></path></g><path d="M93.3,254.8c.51,1.23,3.98,75.48-7.69,88.67l67.62-12.39s7.04-43.86-2.68-62.36l-3.35-.54-53.9-13.38Z" style="fill: rgb(38, 50, 56); transform-origin: 120.652px 299.135px;" id="eltf4rd5j1hef" class="animable"></path><path d="M86.35,253.04c17.01,3.93,33.95,8.18,50.8,12.75,4.83,1.31,9.64,2.65,14.45,4.01,1.4,.4,1.99-1.78,.6-2.17-16.8-4.76-33.69-9.2-50.66-13.31-4.86-1.18-9.73-2.33-14.6-3.45-1.41-.33-2.01,1.84-.6,2.17h0Z" style="fill: rgb(216, 33, 72); transform-origin: 119.264px 260.342px;" id="elnleij42lyyb" class="animable"></path><g id="elbckjul0zu6"><path d="M220.08,350.16s2.59-4.86,10.42-4.7l-.18-7.78-10.23,1.18v11.3Z" style="opacity: 0.3; transform-origin: 225.29px 343.92px;" class="animable"></path></g><g id="elf1ifv7i8aor" class="animable" style="transform-origin: 253.545px 85.694px;"><path d="M271.88,78.25c-3.29-2.18-6.51-4.77-10.4-5.43-6.5-1.1-12.88,3.5-19.42,2.73-2.91-.34-5.57-1.71-8.34-2.65-2.77-.93-7.01-1.3-9.57,.11v.63c5.34,1.16,9.26,7.43,8.77,12.87-.49,5.45-4.82,7.34-7.85,11.89,8.78,1.14,19.19,2.05,26.66-2.69,3.01-1.91,5.84-4.28,9.3-5.12,3.36-.82,6.91-.08,10.33-.54,4.99-.68,9.53-4.08,11.58-8.69-3.82,.96-7.76-.94-11.05-3.12Z" style="fill: rgb(38, 50, 56); transform-origin: 253.545px 85.694px;" id="elbpjyohnjb3f" class="animable"></path><g id="elpd4z9rchr1"><g style="opacity: 0.3; transform-origin: 246.983px 81.1585px;" class="animable"><path d="M247.89,75.09c.78,2.57,1.6,5.75,2.92,8.13,.34,.61,.71,1.23,.85,1.94,.14,.71-.04,1.56-.57,1.91-.77,.5-1.69-.29-2.33-1.03-2.1-2.45-5.23-7.36-6.5-10.5,0,0,1.34,.28,3.72-.13l1.9-.32Z" id="eleo8316i4d2c" class="animable" style="transform-origin: 246.983px 81.1585px;"></path></g></g><g id="elas6oxo8j6la"><g style="opacity: 0.3; transform-origin: 270.185px 86.1266px;" class="animable"><path d="M274.63,89.2c-2.16-2.03-4.45-4.39-6.61-6.42-.52-.48-1.27-1-1.87-.61-.54,.36-.45,1.17-.27,1.8,.65,2.23,1.67,4.35,3,6.25,0,0,2.08-.05,3.07-.27,.99-.22,2.67-.76,2.67-.76Z" id="elxiq1nrsknw" class="animable" style="transform-origin: 270.185px 86.1266px;"></path></g></g></g><g id="el9lde7xqpofv" class="animable" style="transform-origin: 351.45px 184.965px;"><path d="M364.55,179.83c-2.33-1.54-4.61-3.38-7.36-3.84-4.6-.78-9.11,2.47-13.74,1.93-2.06-.24-3.94-1.21-5.91-1.87-1.96-.66-4.96-.92-6.77,.08v.45c3.78,.82,6.55,5.26,6.2,9.11-.35,3.85-4.3,4.69-6.44,7.91,6.21,.81,14.47,1.96,19.76-1.4,2.13-1.35,4.14-3.03,6.58-3.62,2.38-.58,4.89-.06,7.31-.38,3.53-.48,6.75-2.89,8.19-6.15-2.71,.68-5.49-.66-7.82-2.2Z" style="fill: rgb(38, 50, 56); transform-origin: 351.45px 184.965px;" id="elc9v8osbz3ov" class="animable"></path><g id="elxwrz7z1loeh"><g style="opacity: 0.3; transform-origin: 346.926px 181.89px;" class="animable"><path d="M347.57,177.6c.55,1.82,1.13,4.07,2.07,5.75,.24,.43,.5,.87,.6,1.37,.1,.5-.03,1.11-.41,1.35-.55,.35-1.2-.2-1.65-.73-1.48-1.73-3.7-5.21-4.6-7.43,0,0,.95,.2,2.64-.09l1.35-.22Z" id="elza2g606jokb" class="animable" style="transform-origin: 346.926px 181.89px;"></path></g></g><g id="elbdvh72d40zc"><g style="opacity: 0.3; transform-origin: 363.355px 185.406px;" class="animable"><path d="M366.5,187.58c-1.53-1.43-3.15-3.11-4.68-4.54-.37-.34-.9-.71-1.32-.43-.38,.25-.32,.83-.19,1.27,.46,1.58,1.18,3.08,2.12,4.42,0,0,1.47-.04,2.17-.19s1.89-.53,1.89-.53Z" id="el53iw6ackxah" class="animable" style="transform-origin: 363.355px 185.406px;"></path></g></g></g><g id="elxalhcb6e0k"><g style="opacity: 0.3; transform-origin: 209.785px 156.93px;" class="animable"><path d="M180.73,168.77c10.81-.14,22.68-.56,32.82-4.32,10.13-3.76,19.48-10.25,25.29-19.36-18.4,10.04-37.93,18-58.11,23.68Z" id="el2z9u6e6eq3n" class="animable" style="transform-origin: 209.785px 156.93px;"></path></g></g><g id="elykx050zr4j" class="animable" style="transform-origin: 241.018px 282.295px;"><path d="M261.27,261.59c-.59-7.24-2.4-14.79-7.64-19.81-5.24-5.03-14.12-6.26-21.21-4.69l-3.26,.65c-6.99,2.23-14.67,5.02-18.03,11.54-2.09,4.05-2.08,8.83-1.79,13.38,.39,6.07,1.46,12.67,5.99,16.73,4.41,3.96,9.43,4.14,15.35,4.38,1.17,.88,1.14,4.46,2.01,6.32,.87,1.86,3.1,3.26,5,2.47,.95-.4,1.66-1.26,2.61-1.66,1.08-.46,2.33-.41,3.49-.24,2.95,.41,3.41-1.34,5.17-1.96,1.18-.42,2.57,.02,3.71-.48,.77-.33,1.63-.78,1.81-1.6,.22-1.02,.27-2.21-.15-3.16-.6-1.35-1.37-3.91-1.37-3.91,0,0,2.67-2.73,4.62-4.9,3.33-3.71,4.11-8.12,3.7-13.08Zm-27.39,9.83c-.28,3.28-3.22,6.14-6.73,6.39-2.57,.18-5.22-.99-6.87-2.91-1.65-1.92-2.3-4.51-1.85-6.88l.34-.99c1.62-3.03,5.72-4.63,9.26-3.6,3.54,1.03,6.13,4.57,5.84,7.99Zm11.33,11.2c-.52,.37-1.17,.37-1.72,.15-.55-.23-1.03-.65-1.47-1.12-.28,.95-.66,2.02-1.45,2.35-.75,.31-1.59-.26-1.94-1.09-.36-.83-.33-1.84-.19-2.79,.31-2.07,1.15-4.05,2.38-5.58l.09-.1c1.84,.37,3.51,1.65,4.54,3.49,.4,.72,.72,1.54,.73,2.42,.01,.88-.32,1.82-.97,2.28Zm5.74-9.82c-3.09,.52-6.44-1.47-7.5-4.59-.78-2.29-.34-4.97,1.03-6.91,1.37-1.95,3.6-3.15,5.89-3.31l1,.08c3.18,.75,5.64,4.09,5.54,7.55-.1,3.46-2.74,6.64-5.96,7.18Z" style="fill: rgb(255, 255, 255); transform-origin: 235.291px 264.618px;" id="elvfc6yjnyfa8" class="animable"></path><path d="M269.29,306.5c-1.73,.05-4.85,2.09-6.31,3.27l-.03,.16-42.49-9.8c.52-1.97,.26-4.31-.86-5.83-1.12-1.52-3.11-2-4.49-.87-1.38,1.14-1.77,3.89-.65,5.41-1.02,.16-.73-.08-1.65,.51-.92,.59-1.7,1.67-1.81,2.97-.19,2.18,1.63,3.95,3.36,4.02,1.73,.07,3.59-1.34,5.09-2.42l42.65,9.96c-.36,1.94,.01,4.13,1.14,5.52,1.18,1.45,3.19,1.79,4.52,.57,1.33-1.22,1.61-4,.43-5.44,1.02-.22,2.05-.48,2.95-1.13,.89-.65,1.63-1.78,1.69-3.08,.1-2.18-1.79-3.84-3.52-3.79Z" style="fill: rgb(255, 255, 255); transform-origin: 241.91px 306.761px;" id="elmhdbf5alqkc" class="animable"></path><path d="M219.02,315.76c1.65-.54,5.27,.33,7.04,.95l.09,.14,36.69-23.57c-1.15-1.68-1.7-3.97-1.16-5.78,.54-1.81,2.25-2.93,3.93-2.33,1.68,.6,2.98,3.06,2.44,4.87,1.02-.2,.66-.32,1.72-.08,1.06,.25,2.17,1,2.71,2.18,.91,1.98-.2,4.27-1.81,4.92-1.61,.65-3.83-.05-5.61-.56l-36.78,23.77c.99,1.71,1.38,3.89,.79,5.58-.62,1.76-2.4,2.77-4.06,2.06s-2.86-3.22-2.24-4.98c-1.03,.13-2.09,.24-3.15-.07s-2.14-1.13-2.63-2.33c-.83-2.02,.39-4.22,2.03-4.76Z" style="fill: rgb(255, 255, 255); transform-origin: 244.765px 306.573px;" id="el1bo8joqeq05" class="animable"></path></g><g id="elp03joy3di5h"><g style="opacity: 0.3; transform-origin: 123.57px 306.015px;" class="animable"><path d="M99.93,317.81c8.79-.14,18.04-2.96,26.29-6.7,8.24-3.74,16.27-7.81,20.99-16.89-14.97,10-30.86,17.93-47.28,23.58Z" id="el4mk7dwlfsh" class="animable" style="transform-origin: 123.57px 306.015px;"></path></g></g><g id="elmnwsvlx8hx"><path d="M221.85,204.34s-.08,0-.11-.01c-4.79-1.11-8.74-5.27-9.62-10.1-.05-.27,.13-.53,.4-.58,.27-.05,.53,.13,.58,.4,.81,4.45,4.45,8.28,8.86,9.3,.27,.06,.44,.33,.37,.6-.05,.23-.26,.39-.49,.39Z" style="fill: rgb(255, 255, 255); opacity: 0.4; transform-origin: 217.229px 198.991px;" class="animable"></path></g><g id="el8t9x4bt7oxp"><path d="M211.37,191.13v.08c0,.1,.02,.2,.06,.29,.03,.09,.08,.17,.16,.24,.07,.07,.15,.12,.24,.16,.09,.05,.19,.07,.29,.06l.2-.03c.13-.04,.24-.1,.33-.19l.12-.15c.07-.12,.1-.24,.1-.38v-.08c0-.1-.02-.2-.06-.29-.03-.09-.08-.17-.16-.24-.07-.07-.15-.12-.24-.16-.09-.05-.19-.07-.29-.06l-.2,.03c-.13,.04-.24,.1-.33,.19l-.12,.15c-.07,.12-.1,.24-.1,.38h0Z" style="fill: rgb(255, 255, 255); opacity: 0.4; transform-origin: 212.12px 191.17px;" class="animable"></path></g><g id="elyx08olsjapa"><path d="M226.93,230.86c-4.25,.02-6.42,5.09-3.51,8.18,13.47,14.34,44.1,42.72,62.34,45.52,17.44,2.67,16.9-5.35,14.76-20.97-2.14-15.63-6.86-31.51-11.11-32.32-3.22-.61-43.23-.5-62.48-.41Z" style="fill: rgb(255, 255, 255); opacity: 0.1; transform-origin: 261.835px 257.928px;" class="animable"></path></g><g id="elcmsz4iqxj67"><path d="M158.91,392.25c.68,9.71,.68,19.52,0,29.23-.68-9.71-.68-19.52,0-29.23h0Z" style="opacity: 0.3; transform-origin: 158.91px 406.865px;" class="animable"></path></g><g id="elyo0cpwem0nr"><path d="M132.07,364.88c.68,8.92,.68,17.95,0,26.87-.68-8.92-.68-17.95,0-26.87h0Z" style="opacity: 0.3; transform-origin: 132.07px 378.315px;" class="animable"></path></g><g id="elru8tw69v7d"><path d="M317.65,392.25c.68,9.71,.68,19.52,0,29.23-.68-9.71-.68-19.52,0-29.23h0Z" style="opacity: 0.3; transform-origin: 317.65px 406.865px;" class="animable"></path></g></g></g><defs>     <filter id="active" height="200%">         <feMorphology in="SourceAlpha" result="DILATED" operator="dilate" radius="2"></feMorphology>                <feFlood flood-color="#32DFEC" flood-opacity="1" result="PINK"></feFlood>        <feComposite in="PINK" in2="DILATED" operator="in" result="OUTLINE"></feComposite>        <feMerge>            <feMergeNode in="OUTLINE"></feMergeNode>            <feMergeNode in="SourceGraphic"></feMergeNode>        </feMerge>    </filter>    <filter id="hover" height="200%">        <feMorphology in="SourceAlpha" result="DILATED" operator="dilate" radius="2"></feMorphology>                <feFlood flood-color="#ff0000" flood-opacity="0.5" result="PINK"></feFlood>        <feComposite in="PINK" in2="DILATED" operator="in" result="OUTLINE"></feComposite>        <feMerge>            <feMergeNode in="OUTLINE"></feMergeNode>            <feMergeNode in="SourceGraphic"></feMergeNode>        </feMerge>            <feColorMatrix type="matrix" values="0   0   0   0   0                0   1   0   0   0                0   0   0   0   0                0   0   0   1   0 "></feColorMatrix>    </filter></defs></svg>